G75*
G70*
%OFA0B0*%
%FSLAX24Y24*%
%IPPOS*%
%LPD*%
%AMOC8*
5,1,8,0,0,1.08239X$1,22.5*
%
%ADD10C,0.0453*%
%ADD11R,0.0295X0.0256*%
%ADD12R,0.0394X0.0394*%
%ADD13C,0.0069*%
%ADD14R,0.0748X0.0689*%
%ADD15R,0.0256X0.0295*%
%ADD16R,0.0197X0.0197*%
%ADD17R,0.0492X0.0492*%
%ADD18C,0.0492*%
%ADD19R,0.0413X0.0374*%
%ADD20R,0.0276X0.0531*%
%ADD21R,0.1043X0.0531*%
%ADD22R,0.0386X0.0307*%
%ADD23R,0.0307X0.0386*%
%ADD24R,0.0374X0.0413*%
%ADD25R,0.0256X0.0177*%
%ADD26R,0.0659X0.0959*%
%ADD27R,0.0445X0.1398*%
%ADD28C,0.0610*%
%ADD29C,0.0531*%
%ADD30R,0.0728X0.0374*%
%ADD31C,0.0719*%
%ADD32R,0.0650X0.0374*%
%ADD33R,0.0610X0.0768*%
%ADD34R,0.0807X0.0610*%
%ADD35R,0.0650X0.0571*%
%ADD36C,0.0236*%
%ADD37C,0.0276*%
D10*
X002762Y004489D03*
X002762Y015119D03*
X013392Y015119D03*
X013392Y004489D03*
D11*
X010766Y005831D03*
X010451Y005930D03*
X010105Y005993D03*
X010105Y005599D03*
X010451Y005536D03*
X010766Y006225D03*
X012010Y009898D03*
X012010Y010292D03*
X010081Y010237D03*
X010081Y010630D03*
X009616Y012634D03*
X009616Y013028D03*
X009880Y014016D03*
X010191Y014052D03*
X010191Y014445D03*
X009880Y014410D03*
X003439Y013248D03*
X003439Y012855D03*
X003376Y005619D03*
X003376Y005225D03*
D12*
X008668Y013465D03*
D13*
X008711Y013943D02*
X008711Y014169D01*
X008781Y014169D01*
X008781Y013943D01*
X008711Y013943D01*
X008711Y014011D02*
X008781Y014011D01*
X008781Y014079D02*
X008711Y014079D01*
X008711Y014147D02*
X008781Y014147D01*
X008869Y014169D02*
X008869Y013943D01*
X008869Y014169D02*
X008939Y014169D01*
X008939Y013943D01*
X008869Y013943D01*
X008869Y014011D02*
X008939Y014011D01*
X008939Y014079D02*
X008869Y014079D01*
X008869Y014147D02*
X008939Y014147D01*
X009026Y014169D02*
X009026Y013943D01*
X009026Y014169D02*
X009096Y014169D01*
X009096Y013943D01*
X009026Y013943D01*
X009026Y014011D02*
X009096Y014011D01*
X009096Y014079D02*
X009026Y014079D01*
X009026Y014147D02*
X009096Y014147D01*
X009145Y013824D02*
X009371Y013824D01*
X009145Y013824D02*
X009145Y013894D01*
X009371Y013894D01*
X009371Y013824D01*
X009371Y013892D02*
X009145Y013892D01*
X009145Y013666D02*
X009371Y013666D01*
X009145Y013666D02*
X009145Y013736D01*
X009371Y013736D01*
X009371Y013666D01*
X009371Y013734D02*
X009145Y013734D01*
X009145Y013509D02*
X009371Y013509D01*
X009145Y013509D02*
X009145Y013579D01*
X009371Y013579D01*
X009371Y013509D01*
X009371Y013577D02*
X009145Y013577D01*
X009145Y013351D02*
X009371Y013351D01*
X009145Y013351D02*
X009145Y013421D01*
X009371Y013421D01*
X009371Y013351D01*
X009371Y013419D02*
X009145Y013419D01*
X009145Y013194D02*
X009371Y013194D01*
X009145Y013194D02*
X009145Y013264D01*
X009371Y013264D01*
X009371Y013194D01*
X009371Y013262D02*
X009145Y013262D01*
X009145Y013036D02*
X009371Y013036D01*
X009145Y013036D02*
X009145Y013106D01*
X009371Y013106D01*
X009371Y013036D01*
X009371Y013104D02*
X009145Y013104D01*
X009096Y012987D02*
X009096Y012761D01*
X009026Y012761D01*
X009026Y012987D01*
X009096Y012987D01*
X009096Y012829D02*
X009026Y012829D01*
X009026Y012897D02*
X009096Y012897D01*
X009096Y012965D02*
X009026Y012965D01*
X008939Y012987D02*
X008939Y012761D01*
X008869Y012761D01*
X008869Y012987D01*
X008939Y012987D01*
X008939Y012829D02*
X008869Y012829D01*
X008869Y012897D02*
X008939Y012897D01*
X008939Y012965D02*
X008869Y012965D01*
X008781Y012987D02*
X008781Y012761D01*
X008711Y012761D01*
X008711Y012987D01*
X008781Y012987D01*
X008781Y012829D02*
X008711Y012829D01*
X008711Y012897D02*
X008781Y012897D01*
X008781Y012965D02*
X008711Y012965D01*
X008624Y012987D02*
X008624Y012761D01*
X008554Y012761D01*
X008554Y012987D01*
X008624Y012987D01*
X008624Y012829D02*
X008554Y012829D01*
X008554Y012897D02*
X008624Y012897D01*
X008624Y012965D02*
X008554Y012965D01*
X008466Y012987D02*
X008466Y012761D01*
X008396Y012761D01*
X008396Y012987D01*
X008466Y012987D01*
X008466Y012829D02*
X008396Y012829D01*
X008396Y012897D02*
X008466Y012897D01*
X008466Y012965D02*
X008396Y012965D01*
X008309Y012987D02*
X008309Y012761D01*
X008239Y012761D01*
X008239Y012987D01*
X008309Y012987D01*
X008309Y012829D02*
X008239Y012829D01*
X008239Y012897D02*
X008309Y012897D01*
X008309Y012965D02*
X008239Y012965D01*
X008190Y013106D02*
X007964Y013106D01*
X008190Y013106D02*
X008190Y013036D01*
X007964Y013036D01*
X007964Y013106D01*
X007964Y013104D02*
X008190Y013104D01*
X008190Y013264D02*
X007964Y013264D01*
X008190Y013264D02*
X008190Y013194D01*
X007964Y013194D01*
X007964Y013264D01*
X007964Y013262D02*
X008190Y013262D01*
X008190Y013421D02*
X007964Y013421D01*
X008190Y013421D02*
X008190Y013351D01*
X007964Y013351D01*
X007964Y013421D01*
X007964Y013419D02*
X008190Y013419D01*
X008190Y013579D02*
X007964Y013579D01*
X008190Y013579D02*
X008190Y013509D01*
X007964Y013509D01*
X007964Y013579D01*
X007964Y013577D02*
X008190Y013577D01*
X008190Y013736D02*
X007964Y013736D01*
X008190Y013736D02*
X008190Y013666D01*
X007964Y013666D01*
X007964Y013736D01*
X007964Y013734D02*
X008190Y013734D01*
X008190Y013894D02*
X007964Y013894D01*
X008190Y013894D02*
X008190Y013824D01*
X007964Y013824D01*
X007964Y013894D01*
X007964Y013892D02*
X008190Y013892D01*
X008239Y013943D02*
X008239Y014169D01*
X008309Y014169D01*
X008309Y013943D01*
X008239Y013943D01*
X008239Y014011D02*
X008309Y014011D01*
X008309Y014079D02*
X008239Y014079D01*
X008239Y014147D02*
X008309Y014147D01*
X008396Y014169D02*
X008396Y013943D01*
X008396Y014169D02*
X008466Y014169D01*
X008466Y013943D01*
X008396Y013943D01*
X008396Y014011D02*
X008466Y014011D01*
X008466Y014079D02*
X008396Y014079D01*
X008396Y014147D02*
X008466Y014147D01*
X008554Y014169D02*
X008554Y013943D01*
X008554Y014169D02*
X008624Y014169D01*
X008624Y013943D01*
X008554Y013943D01*
X008554Y014011D02*
X008624Y014011D01*
X008624Y014079D02*
X008554Y014079D01*
X008554Y014147D02*
X008624Y014147D01*
D14*
X008668Y013465D03*
D15*
X007561Y014174D03*
X007168Y014174D03*
X010593Y011209D03*
X010986Y011209D03*
X010278Y009556D03*
X009884Y009556D03*
X012624Y006382D03*
X013018Y006382D03*
X012152Y004953D03*
X011758Y004953D03*
X010829Y005213D03*
X010435Y005213D03*
D16*
X007103Y013002D03*
X006847Y013002D03*
X006591Y013002D03*
X006335Y013002D03*
X006335Y013573D03*
X006591Y013573D03*
X006847Y013573D03*
X007103Y013573D03*
D17*
X013498Y011000D03*
D18*
X013498Y011591D03*
X013498Y012181D03*
D19*
X012849Y010126D03*
X012849Y009457D03*
X013034Y008394D03*
X013034Y007725D03*
X010534Y007323D03*
X009943Y007382D03*
X009353Y007343D03*
X009353Y006674D03*
X009943Y006713D03*
X010534Y006654D03*
X009451Y009689D03*
X009451Y010359D03*
X010231Y012638D03*
X010231Y013386D03*
X011057Y013012D03*
D20*
X010977Y010800D03*
X010609Y010800D03*
X011357Y010800D03*
X011357Y009776D03*
X010983Y009776D03*
X010609Y009776D03*
X008451Y006182D03*
X008077Y006182D03*
X007703Y006182D03*
X007703Y005158D03*
X008451Y005158D03*
D21*
X012384Y011074D03*
X012384Y012274D03*
D22*
X011408Y012162D03*
X011408Y011256D03*
X013447Y007311D03*
X013447Y006406D03*
D23*
X012195Y009237D03*
X011290Y009237D03*
D24*
X010738Y011933D03*
X010069Y011933D03*
X004809Y006693D03*
X004140Y006693D03*
D25*
X011173Y006296D03*
X011173Y006099D03*
X011173Y005912D03*
X011173Y005705D03*
X011173Y005508D03*
X012217Y005508D03*
X012217Y005705D03*
X012217Y005902D03*
X012217Y006089D03*
X012217Y006296D03*
D26*
X011695Y005902D03*
D27*
X011297Y007500D03*
X012242Y007500D03*
D28*
X002738Y008126D03*
X002738Y011414D03*
D29*
X003920Y010705D03*
X003939Y008835D03*
D30*
X002742Y006693D03*
X002742Y005040D03*
X002727Y012969D03*
X002727Y014622D03*
D31*
X004490Y015201D03*
X005490Y015201D03*
X006490Y015201D03*
X007490Y015201D03*
X008490Y015201D03*
X009490Y015201D03*
X010490Y015201D03*
X011490Y015201D03*
X013475Y009949D03*
X013475Y009048D03*
X011498Y004382D03*
X010498Y004382D03*
X009498Y004382D03*
X008498Y004382D03*
X007498Y004382D03*
X006498Y004382D03*
X005498Y004382D03*
X004498Y004382D03*
D32*
X004553Y007536D03*
X004553Y007969D03*
X004475Y008402D03*
X004553Y008835D03*
X004475Y009268D03*
X004553Y009701D03*
X004711Y010134D03*
X004553Y010567D03*
D33*
X008609Y010099D03*
X008609Y007855D03*
D34*
X003431Y007225D03*
X003038Y012402D03*
D35*
X006896Y006437D03*
X006896Y005689D03*
X005912Y006044D03*
X005912Y005296D03*
D36*
X006345Y005552D03*
X005479Y006575D03*
X005990Y006733D03*
X006384Y007441D03*
X006423Y008071D03*
X006620Y008307D03*
X006817Y008544D03*
X007329Y008347D03*
X007526Y008780D03*
X007723Y009292D03*
X007447Y009725D03*
X007290Y010119D03*
X006975Y010552D03*
X007683Y011300D03*
X007683Y011575D03*
X008077Y011378D03*
X007920Y010748D03*
X008904Y011063D03*
X009179Y011654D03*
X009534Y011693D03*
X009888Y012441D03*
X009888Y012835D03*
X009337Y012638D03*
X008943Y012441D03*
X008274Y012461D03*
X007801Y013229D03*
X007486Y013583D03*
X007014Y013209D03*
X006778Y013209D03*
X006069Y013268D03*
X006463Y012441D03*
X005282Y011772D03*
X005085Y011536D03*
X005085Y012756D03*
X004809Y014056D03*
X005794Y014370D03*
X006620Y014095D03*
X007053Y014804D03*
X006975Y015433D03*
X007880Y014489D03*
X007920Y014252D03*
X009061Y014449D03*
X009455Y014449D03*
X008983Y015433D03*
X007998Y015433D03*
X009612Y013307D03*
X010479Y014056D03*
X010479Y014410D03*
X011148Y014410D03*
X011148Y013819D03*
X010754Y013426D03*
X010754Y012559D03*
X011266Y012481D03*
X011423Y011811D03*
X012014Y011496D03*
X010990Y010276D03*
X011620Y009607D03*
X011620Y009134D03*
X011817Y008426D03*
X010912Y007678D03*
X010439Y007678D03*
X010794Y008386D03*
X009652Y009016D03*
X009652Y009292D03*
X009179Y009056D03*
X009061Y008189D03*
X009376Y007953D03*
X008983Y007126D03*
X009652Y006378D03*
X009770Y005591D03*
X009140Y005237D03*
X008983Y004567D03*
X008116Y005040D03*
X007920Y005630D03*
X007998Y004213D03*
X007014Y004213D03*
X005990Y004174D03*
X004337Y006103D03*
X004455Y006693D03*
X005360Y007363D03*
X003983Y008386D03*
X004927Y009331D03*
X005439Y009331D03*
X006266Y009095D03*
X007920Y008111D03*
X007526Y007048D03*
X009849Y009882D03*
X009770Y010552D03*
X009731Y010827D03*
X012290Y009567D03*
X012841Y009095D03*
X013038Y008701D03*
X010872Y006496D03*
X011699Y005276D03*
X010990Y004134D03*
X002526Y005867D03*
X003825Y014410D03*
X005006Y015433D03*
X012014Y013465D03*
D37*
X011542Y012481D03*
X012368Y011496D03*
X012290Y010276D03*
X008274Y011024D03*
X008195Y008386D03*
X007841Y007048D03*
X007723Y006575D03*
X006660Y005237D03*
X005400Y005355D03*
X004140Y005355D03*
X003864Y012520D03*
X012644Y005788D03*
M02*
