%
M48
M72
T01C0.0079
T02C0.0118
T03C0.0276
T04C0.0315
T05C0.0354
T06C0.0394
%
T01
X2526Y5867
X4337Y6103
X4455Y6693
X5360Y7363
X5990Y6733
X5479Y6575
X6384Y7441
X6423Y8071
X6620Y8307
X6817Y8544
X7329Y8347
X7526Y8780
X7723Y9292
X7447Y9725
X7290Y10119
X6975Y10552
X7683Y11300
X7683Y11575
X8077Y11378
X7920Y10748
X8904Y11063
X9179Y11654
X9534Y11693
X9888Y12441
X9888Y12835
X9337Y12638
X8943Y12441
X8274Y12461
X7801Y13229
X7486Y13583
X7014Y13209
X6778Y13209
X6069Y13268
X6463Y12441
X5282Y11772
X5085Y11536
X5085Y12756
X4809Y14056
X5794Y14370
X6620Y14095
X7053Y14804
X6975Y15433
X7880Y14489
X7920Y14252
X9061Y14449
X9455Y14449
X8983Y15433
X7998Y15433
X9612Y13307
X10479Y14056
X10479Y14410
X11148Y14410
X11148Y13819
X10754Y13426
X10754Y12559
X11266Y12481
X11423Y11811
X12014Y11496
X10990Y10276
X11620Y9607
X11620Y9134
X11817Y8426
X10912Y7678
X10439Y7678
X10794Y8386
X9652Y9016
X9652Y9292
X9179Y9056
X9061Y8189
X9376Y7953
X8983Y7126
X9652Y6378
X9770Y5591
X9140Y5237
X8983Y4567
X8116Y5040
X7920Y5630
X7998Y4213
X7014Y4213
X5990Y4174
X6345Y5552
X7526Y7048
X7920Y8111
X6266Y9095
X5439Y9331
X4927Y9331
X3983Y8386
X3825Y14410
X5006Y15433
X9731Y10827
X9770Y10552
X9849Y9882
X12290Y9567
X12841Y9095
X13038Y8701
X10872Y6496
X11699Y5276
X10990Y4134
X12014Y13465
T02
X11542Y12481
X12368Y11496
X12290Y10276
X8274Y11024
X8195Y8386
X7841Y7048
X7723Y6575
X6660Y5237
X5400Y5355
X4140Y5355
X3864Y12520
X12644Y5788
T03
X13498Y11000
X13498Y11591
X13498Y12181
T04
X3920Y10705
X3939Y8835
T05
X4498Y4382
X5498Y4382
X6498Y4382
X7498Y4382
X8498Y4382
X9498Y4382
X10498Y4382
X11498Y4382
X13475Y9048
X13475Y9949
X11490Y15201
X10490Y15201
X9490Y15201
X8490Y15201
X7490Y15201
X6490Y15201
X5490Y15201
X4490Y15201
T06
X2762Y4489
X2738Y8126
X2738Y11414
X2762Y15119
X13392Y15119
X13392Y4489
M30
